PathFileType	4	(X/Y/Z)	/Users/itak/Documents/Research/Walk-IL/dataset/trc/00204_00008.trc
DataRate	CameraRate	NumFrames	NumMarkers	Units	OrigDataRate	OrigDataStartFrame	OrigNumFrames
100.000000	100.000000	4	53	mm	100.000000	62	499
Frame#	Time	RPSI			LPSI			L3			STRN			T10			C7			CLAV			RBAK			LBAK			LSHO			LUPA			LAEL			LAOL			LWTS			LWPS			LFRA			LIFD			LHPS			LHTS			RSHO			RUPA			RAEL			RAOL			RWTS			RWPS			RFRA			RIFD			RHTS			RHPS			RBHD			LFHD			RFHD			LBHD			LHIP			RHIP			RASI			LASI			LKNE			LTHI			LANK			LTIP			LTOE			LMT1			LMT5			LHEE			RKNE			RTHI			RANK			RTIP			RTOE			RMT1			RMT5			RHEE			
		X1	Y1	Z1	X2	Y2	Z2	X3	Y3	Z3	X4	Y4	Z4	X5	Y5	Z5	X6	Y6	Z6	X7	Y7	Z7	X8	Y8	Z8	X9	Y9	Z9	X10	Y10	Z10	X11	Y11	Z11	X12	Y12	Z12	X13	Y13	Z13	X14	Y14	Z14	X15	Y15	Z15	X16	Y16	Z16	X17	Y17	Z17	X18	Y18	Z18	X19	Y19	Z19	X20	Y20	Z20	X21	Y21	Z21	X22	Y22	Z22	X23	Y23	Z23	X24	Y24	Z24	X25	Y25	Z25	X26	Y26	Z26	X27	Y27	Z27	X28	Y28	Z28	X29	Y29	Z29	X30	Y30	Z30	X31	Y31	Z31	X32	Y32	Z32	X33	Y33	Z33	X34	Y34	Z34	X35	Y35	Z35	X36	Y36	Z36	X37	Y37	Z37	X38	Y38	Z38	X39	Y39	Z39	X40	Y40	Z40	X41	Y41	Z41	X42	Y42	Z42	X43	Y43	Z43	X44	Y44	Z44	X45	Y45	Z45	X46	Y46	Z46	X47	Y47	Z47	X48	Y48	Z48	X49	Y49	Z49	X50	Y50	Z50	X51	Y51	Z51	X52	Y52	Z52	X53	Y53	Z53	

63	0.62	-1613.910278320312	1058.431030273438	-556.3300170898438	-1603.224243164062	1057.897216796875	-681.101318359375	-1606.879150390625	1094.518920898438	-617.204345703125	-1347.604736328125	1299.855224609375	-603.6718139648438	-1640.045166015625	1249.11572265625	-631.3427124023438	-1572.292236328125	1518.488525390625	-643.1329956054688	-1373.380493164062	1413.339111328125	-617.0219116210938	-1650.474853515625	1345.539428710938	-536.1414184570312	-1568.837768554688	1492.190673828125	-744.6012573242188	-1483.117553710938	1477.549072265625	-813.9930419921875	-1501.495483398438	1343.2001953125	-888.08642578125	-1475.813354492188	1122.479125976562	-895.8821411132812	-1542.545654296875	1110.297241210938	-839.6570434570312	-1353.3837890625	907.4596557617188	-826.5201416015625	-1437.956298828125	870.7869262695312	-879.7495727539062	-1455.029052734375	1011.619995117188	-898.2483520507812	-1376.841186523438	714.0128784179688	-778.07666015625	-1418.842651367188	802.3831787109375	-867.0715942382812	-1358.97509765625	815.363525390625	-828.2921752929688	-1527.954833984375	1501.6845703125	-456.3642578125	-1552.434814453125	1436.927124023438	-386.9393615722656	-1558.023803710938	1146.839477539062	-325.3152770996094	-1562.655883789062	1138.387329101562	-423.8388671875	-1409.537231445312	925.237060546875	-346.7903747558594	-1482.140869140625	905.9220581054688	-297.0290832519531	-1530.247680664062	1075.892333984375	-306.958251953125	-1392.231567382812	739.2916870117188	-372.1429443359375	-1378.904541015625	833.664306640625	-337.51318359375	-1450.218994140625	825.2490844726562	-296.8418884277344	-1535.947387695312	1678.706298828125	-579.2960815429688	-1347.246215820312	1735.716430664062	-672.380126953125	-1376.303833007812	1740.440063476562	-546.213623046875	-1513.603515625	1680.388916015625	-715.3093872070312	-1491.400268554688	992.0524291992188	-788.4055786132812	-1470.653076171875	1017.670715332031	-415.7843017578125	-1381.598999023438	1043.310791015625	-469.0326232910156	-1369.75439453125	1025.289428710938	-725.6868896484375	-1490.915161132812	493.6646423339844	-745.5941162109375	-1479.833618164062	635.340576171875	-775.330078125	-1585.969970703125	40.82094955444336	-744.228515625	-1535.367797851562	273.5557250976562	-758.1067504882812	-1364.940185546875	39.80740737915039	-739.1386108398438	-1410.851806640625	39.88665771484375	-686.677001953125	-1481.708251953125	33.80764389038086	-792.5588989257812	-1630.182739257812	37.85984039306641	-670.8490600585938	-1479.048950195312	514.79052734375	-422.3047485351562	-1426.480712890625	782.3455810546875	-400.4660034179688	-1565.88916015625	36.01718521118164	-415.5638122558594	-1471.9775390625	398.0085754394531	-435.8894348144531	-1340.571655273438	40.72865676879883	-443.0851440429688	-1395.276245117188	38.95266342163086	-490.2713623046875	-1454.56689453125	36.51405334472656	-377.7589721679688	-1614.120483398438	31.10877990722656	-484.4900512695312	
64	0.63	-1613.774780273438	1058.607421875	-557.3199462890625	-1603.011352539062	1058.115600585938	-682.072021484375	-1606.675048828125	1094.702026367188	-618.1803588867188	-1347.191650390625	1299.635131835938	-604.5149536132812	-1639.573486328125	1249.36279296875	-632.2603759765625	-1571.481567382812	1518.646728515625	-643.9490356445312	-1372.864990234375	1413.181274414062	-617.852294921875	-1649.971923828125	1345.74951171875	-537.087158203125	-1568.02880859375	1492.330444335938	-745.4280395507812	-1482.264038085938	1477.62939453125	-814.7779541015625	-1500.852661132812	1343.287719726562	-888.9027099609375	-1475.384399414062	1122.526977539062	-896.6417846679688	-1542.176025390625	1110.422485351562	-840.4548950195312	-1352.863647460938	907.6176147460938	-827.3692626953125	-1437.699829101562	870.8054809570312	-880.3746337890625	-1454.703979492188	1011.650085449219	-898.947998046875	-1376.839111328125	714.0474243164062	-778.7117309570312	-1418.67041015625	802.4072875976562	-867.6466064453125	-1358.793701171875	815.3826904296875	-828.822998046875	-1527.246215820312	1501.67333984375	-457.1869812011719	-1551.828247070312	1436.923095703125	-387.7932739257812	-1557.917724609375	1146.880126953125	-326.2197265625	-1562.518798828125	1138.4189453125	-424.7530212402344	-1409.857543945312	925.007080078125	-347.5320129394531	-1482.486450195312	905.8507080078125	-297.8278503417969	-1530.189208984375	1075.8896484375	-307.789306640625	-1392.818237304688	739.0201416015625	-372.8282470703125	-1379.33251953125	833.4131469726562	-338.1848449707031	-1450.687866210938	825.11669921875	-297.5924682617188	-1534.837524414062	1678.77099609375	-579.9021606445312	-1346.172973632812	1735.606567382812	-673.1172485351562	-1375.14453125	1740.321166992188	-546.9348754882812	-1512.649780273438	1680.490356445312	-715.972412109375	-1491.328002929688	992.0936279296875	-789.4093017578125	-1470.526733398438	1017.656127929688	-416.7722473144531	-1381.450439453125	1043.190063476562	-469.9930114746094	-1369.623779296875	1025.177734375	-726.6497802734375	-1490.918701171875	493.5895385742188	-746.1725463867188	-1479.831420898438	635.2645263671875	-776.0558471679688	-1585.98681640625	40.76387786865234	-744.284912109375	-1535.355834960938	273.3835144042969	-758.4497680664062	-1364.970092773438	39.8189697265625	-739.132568359375	-1410.84619140625	39.91763305664062	-686.6759033203125	-1481.707885742188	33.7904167175293	-792.5695190429688	-1630.221557617188	37.81594467163086	-670.8927001953125	-1479.027709960938	514.8348388671875	-422.85986328125	-1426.595458984375	782.2592163085938	-401.2964782714844	-1565.895385742188	36.03195953369141	-415.5713500976562	-1472.018676757812	398.0546264648438	-436.2940673828125	-1340.579833984375	40.74274826049805	-443.0827941894531	-1395.275634765625	38.95291900634766	-490.2727355957031	-1454.560913085938	36.54224014282227	-377.7349548339844	-1614.136474609375	31.11155319213867	-484.5016479492188	
65	0.64	-1613.634033203125	1058.788208007812	-558.3492431640625	-1602.779296875	1058.330444335938	-683.0717163085938	-1606.446533203125	1094.88427734375	-619.1849975585938	-1346.75146484375	1299.4091796875	-605.3941040039062	-1639.090087890625	1249.609130859375	-633.2066040039062	-1570.651245117188	1518.798950195312	-644.798583984375	-1372.31787109375	1413.018432617188	-618.7205200195312	-1649.457763671875	1345.964233398438	-538.0625	-1567.211791992188	1492.485107421875	-746.2898559570312	-1481.39208984375	1477.705810546875	-815.591552734375	-1500.200439453125	1343.375854492188	-889.75048828125	-1474.954956054688	1122.570556640625	-897.4327392578125	-1541.794677734375	1110.549682617188	-841.2796020507812	-1352.360473632812	907.7564086914062	-828.2022094726562	-1437.441284179688	870.8255004882812	-881.0269775390625	-1454.360717773438	1011.678771972656	-899.6766967773438	-1376.833129882812	714.0897216796875	-779.3975219726562	-1418.470825195312	802.4284057617188	-868.2482299804688	-1358.60205078125	815.4109497070312	-829.3912353515625	-1526.497314453125	1501.661376953125	-458.0373840332031	-1551.19140625	1436.91748046875	-388.6801452636719	-1557.798828125	1146.9150390625	-327.1659545898438	-1562.3564453125	1138.449340820312	-425.7003173828125	-1410.168701171875	924.765625	-348.3175354003906	-1482.835327148438	905.7705078125	-298.6716613769531	-1530.119750976562	1075.875366210938	-308.6631164550781	-1393.4345703125	738.7291870117188	-373.5661926269531	-1379.742431640625	833.1463623046875	-338.9025268554688	-1451.170776367188	824.97412109375	-298.3958129882812	-1533.69384765625	1678.819580078125	-580.5374755859375	-1345.0751953125	1735.487670898438	-673.888916015625	-1373.95751953125	1740.191650390625	-547.6904296875	-1511.659545898438	1680.596435546875	-716.6620483398438	-1491.232055664062	992.1309814453125	-790.4417114257812	-1470.406127929688	1017.641479492188	-417.8101806640625	-1381.265502929688	1043.067993164062	-471.0017395019531	-1369.474487304688	1025.069091796875	-727.6459350585938	-1490.914306640625	493.5116271972656	-746.775634765625	-1479.82568359375	635.1904296875	-776.8064575195312	-1586.0029296875	40.7076416015625	-744.3397827148438	-1535.319091796875	273.2125244140625	-758.792236328125	-1364.99951171875	39.83187484741211	-739.1257934570312	-1410.853271484375	39.94023513793945	-686.6743774414062	-1481.708251953125	33.77461242675781	-792.5798950195312	-1630.259643554688	37.76724624633789	-670.9349975585938	-1479.003173828125	514.8790283203125	-423.451416015625	-1426.706298828125	782.173828125	-402.1449584960938	-1565.9033203125	36.04736328125	-415.58154296875	-1472.062377929688	398.1044006347656	-436.7315673828125	-1340.587890625	40.76018905639648	-443.0766296386719	-1395.276489257812	38.95444869995117	-490.2742004394531	-1454.559204101562	36.56923675537109	-377.7017517089844	-1614.152099609375	31.11150169372559	-484.5147705078125	
66	0.65	-1613.478393554688	1058.97412109375	-559.4152221679688	-1602.523315429688	1058.5400390625	-684.1025390625	-1606.18701171875	1095.0673828125	-620.2186889648438	-1346.27783203125	1299.181396484375	-606.3089599609375	-1638.59619140625	1249.854370117188	-634.1826171875	-1569.809448242188	1518.947387695312	-645.6840209960938	-1371.735229492188	1412.849975585938	-619.625	-1648.9267578125	1346.1826171875	-539.064208984375	-1566.384521484375	1492.658325195312	-747.18310546875	-1480.504638671875	1477.77783203125	-816.4362182617188	-1499.538452148438	1343.4658203125	-890.6311645507812	-1474.527954101562	1122.610473632812	-898.2569580078125	-1541.40380859375	1110.680908203125	-842.1337890625	-1351.96728515625	907.8345947265625	-828.97998046875	-1437.18017578125	870.8468017578125	-881.7078247070312	-1453.999633789062	1011.705688476562	-900.4373779296875	-1376.814208984375	714.146484375	-780.1279296875	-1418.248657226562	802.44677734375	-868.8786010742188	-1358.401489257812	815.4464111328125	-830.0003662109375	-1525.704956054688	1501.647216796875	-458.9132080078125	-1550.524047851562	1436.910888671875	-389.5980834960938	-1557.661865234375	1146.94384765625	-328.1520385742188	-1562.162963867188	1138.47998046875	-426.6791381835938	-1410.458740234375	924.509765625	-349.1477966308594	-1483.17919921875	905.680908203125	-299.560791015625	-1530.046997070312	1075.850952148438	-309.5857849121094	-1394.068969726562	738.4221801757812	-374.3585815429688	-1380.13671875	832.8580322265625	-339.674560546875	-1451.662841796875	824.8217163085938	-299.2525939941406	-1532.526245117188	1678.855102539062	-581.2086791992188	-1343.95068359375	1735.357421875	-674.6952514648438	-1372.736083984375	1740.046752929688	-548.477783203125	-1510.637817382812	1680.71435546875	-717.3818359375	-1491.101440429688	992.16259765625	-791.4996948242188	-1470.296997070312	1017.62890625	-418.89599609375	-1381.052001953125	1042.944213867188	-472.0491027832031	-1369.302978515625	1024.960327148438	-728.675537109375	-1490.896240234375	493.4298706054688	-747.3995971679688	-1479.813842773438	635.1173095703125	-777.5802001953125	-1586.018920898438	40.65235137939453	-744.3936157226562	-1535.258422851562	273.0497741699219	-759.1287231445312	-1365.027709960938	39.84554290771484	-739.1185913085938	-1410.88134765625	39.94877243041992	-686.673095703125	-1481.709350585938	33.76166152954102	-792.5901489257812	-1630.295288085938	37.7122802734375	-670.9749755859375	-1478.979858398438	514.9221801757812	-424.072265625	-1426.798461914062	782.09423828125	-403.0062866210938	-1565.91259765625	36.06254577636719	-415.5933227539062	-1472.102416992188	398.1567687988281	-437.1983032226562	-1340.596069335938	40.78071975708008	-443.06689453125	-1395.279052734375	38.95739364624023	-490.2763061523438	-1454.56494140625	36.59271240234375	-377.6622009277344	-1614.165893554688	31.10747718811035	-484.5283508300781	
